<svg xmlns="http://www.w3.org/2000/svg" viewBox="0 0 100 100">
  <!-- Background circle with gradient -->
  <defs>
    <linearGradient id="grad" x1="0%" y1="0%" x2="100%" y2="100%">
      <stop offset="0%" style="stop-color:#1e40af;stop-opacity:1" />
      <stop offset="100%" style="stop-color:#059669;stop-opacity:1" />
    </linearGradient>
  </defs>
  <circle cx="50" cy="50" r="48" fill="url(#grad)"/>

  <!-- Simplified mosque icon in white -->
  <g fill="white">
    <!-- Central dome -->
    <path d="M 50 25 Q 40 25, 40 35 L 40 45 L 60 45 L 60 35 Q 60 25, 50 25 Z"/>
    <!-- Crescent on top of dome -->
    <path d="M 48 22 Q 48 18, 52 18 Q 48 18, 48 22 Z"/>

    <!-- Left minaret -->
    <rect x="28" y="35" width="6" height="30" rx="1"/>
    <circle cx="31" cy="32" r="3"/>

    <!-- Right minaret -->
    <rect x="66" y="35" width="6" height="30" rx="1"/>
    <circle cx="69" cy="32" r="3"/>

    <!-- Base building -->
    <rect x="38" y="45" width="24" height="30" rx="2"/>
    <!-- Arched entrance -->
    <path d="M 44 65 Q 44 55, 50 55 Q 56 55, 56 65 Z" fill="#1e40af"/>
  </g>
</svg>
